<?xml version="1.0" encoding="UTF-8"?>
<svg xmlns="http://www.w3.org/2000/svg" xmlns:xlink="http://www.w3.org/1999/xlink" width="792pt" height="612pt" viewBox="0 0 792 612" version="1.1">
<g id="surface1">
<path style=" stroke:none;fill-rule:evenodd;fill:rgb(97.299194%,59.999084%,10.998535%);fill-opacity:1;" d="M 367.292969 366.28125 C 339.757813 386.605469 299.835938 397.410156 265.460938 397.410156 C 217.277344 397.410156 173.894531 379.601563 141.0625 349.953125 C 138.484375 347.628906 140.78125 344.449219 143.882813 346.25 C 179.304688 366.863281 223.105469 379.277344 268.351563 379.277344 C 298.871094 379.277344 332.421875 372.945313 363.292969 359.851563 C 367.945313 357.875 371.851563 362.917969 367.292969 366.28125 "/>
<path style=" stroke:none;fill-rule:evenodd;fill:rgb(97.299194%,59.999084%,10.998535%);fill-opacity:1;" d="M 378.753906 353.203125 C 375.230469 348.691406 355.46875 351.0625 346.59375 352.128906 C 343.90625 352.445313 343.488281 350.101563 345.914063 348.398438 C 361.675781 337.324219 387.503906 340.523438 390.503906 344.230469 C 393.527344 347.96875 389.710938 373.863281 374.9375 386.222656 C 372.667969 388.121094 370.503906 387.109375 371.511719 384.597656 C 374.835938 376.296875 382.277344 357.714844 378.753906 353.203125 "/>
<path style=" stroke:none;fill-rule:evenodd;fill:rgb(0.799561%,1.199341%,1.199341%);fill-opacity:1;" d="M 347.222656 270.191406 L 347.222656 259.433594 C 347.226563 257.796875 348.460938 256.703125 349.949219 256.707031 L 398.160156 256.699219 C 399.707031 256.703125 400.941406 257.824219 400.945313 259.417969 L 400.941406 268.644531 C 400.929688 270.191406 399.628906 272.210938 397.3125 275.417969 L 372.335938 311.074219 C 381.605469 310.855469 391.414063 312.246094 399.835938 316.980469 C 401.738281 318.046875 402.246094 319.632813 402.394531 321.179688 L 402.394531 332.65625 C 402.394531 334.238281 400.664063 336.070313 398.847656 335.117188 C 384.003906 327.34375 364.3125 326.492188 347.902344 335.210938 C 346.226563 336.105469 344.46875 334.300781 344.46875 332.71875 L 344.46875 321.808594 C 344.46875 320.0625 344.5 317.074219 346.261719 314.414063 L 375.199219 272.902344 L 350.007813 272.898438 C 348.464844 272.898438 347.230469 271.800781 347.222656 270.191406 "/>
<path style=" stroke:none;fill-rule:evenodd;fill:rgb(0.799561%,1.199341%,1.199341%);fill-opacity:1;" d="M 171.34375 337.378906 L 156.675781 337.378906 C 155.28125 337.289063 154.164063 336.238281 154.050781 334.898438 L 154.0625 259.613281 C 154.0625 258.109375 155.328125 256.90625 156.890625 256.90625 L 170.554688 256.902344 C 171.980469 256.976563 173.128906 258.054688 173.222656 259.429688 L 173.222656 269.257813 L 173.492188 269.257813 C 177.054688 259.753906 183.765625 255.316406 192.800781 255.316406 C 201.972656 255.316406 207.726563 259.753906 211.835938 269.257813 C 215.390625 259.753906 223.472656 255.316406 232.097656 255.316406 C 238.257813 255.316406 244.96875 257.851563 249.074219 263.554688 C 253.730469 269.890625 252.773438 279.082031 252.773438 287.160156 L 252.761719 334.667969 C 252.761719 336.175781 251.496094 337.378906 249.933594 337.378906 L 235.28125 337.378906 C 233.8125 337.285156 232.648438 336.117188 232.648438 334.675781 L 232.644531 294.765625 C 232.644531 291.597656 232.917969 283.675781 232.234375 280.664063 C 231.140625 275.59375 227.855469 274.167969 223.609375 274.167969 C 220.050781 274.167969 216.351563 276.546875 214.84375 280.347656 C 213.339844 284.152344 213.476563 290.488281 213.476563 294.765625 L 213.476563 334.667969 C 213.476563 336.175781 212.210938 337.378906 210.648438 337.378906 L 195.996094 337.378906 C 194.523438 337.285156 193.363281 336.117188 193.363281 334.675781 L 193.347656 294.765625 C 193.347656 286.367188 194.71875 274.011719 184.3125 274.011719 C 173.769531 274.011719 174.179688 286.050781 174.179688 294.765625 L 174.171875 334.667969 C 174.175781 336.175781 172.90625 337.378906 171.34375 337.378906 "/>
<path style=" stroke:none;fill-rule:evenodd;fill:rgb(0.799561%,1.199341%,1.199341%);fill-opacity:1;" d="M 442.585938 270.683594 C 431.769531 270.683594 431.085938 285.417969 431.085938 294.605469 C 431.085938 303.792969 430.949219 323.4375 442.449219 323.4375 C 453.816406 323.4375 454.363281 307.597656 454.363281 297.933594 C 454.363281 291.597656 454.089844 283.992188 452.171875 277.972656 C 450.527344 272.746094 447.238281 270.683594 442.585938 270.683594 Z M 442.449219 255.316406 C 464.222656 255.316406 475.996094 274.011719 475.996094 297.773438 C 475.996094 320.746094 462.988281 338.964844 442.449219 338.964844 C 421.089844 338.964844 409.449219 320.269531 409.449219 296.984375 C 409.449219 273.535156 421.226563 255.316406 442.449219 255.316406 "/>
<path style=" stroke:none;fill-rule:evenodd;fill:rgb(0.799561%,1.199341%,1.199341%);fill-opacity:1;" d="M 504.230469 337.378906 L 489.613281 337.378906 C 488.144531 337.285156 486.984375 336.117188 486.984375 334.675781 L 486.960938 259.363281 C 487.085938 257.984375 488.300781 256.90625 489.777344 256.90625 L 503.386719 256.902344 C 504.664063 256.96875 505.71875 257.839844 505.988281 259.011719 L 505.988281 270.523438 L 506.265625 270.523438 C 510.378906 260.226563 516.121094 255.316406 526.257813 255.316406 C 532.828125 255.316406 539.265625 257.695313 543.371094 264.1875 C 547.210938 270.210938 547.210938 280.347656 547.210938 287.636719 L 547.210938 335.007813 C 547.039063 336.34375 545.84375 337.378906 544.394531 337.378906 L 529.691406 337.378906 C 528.332031 337.289063 527.238281 336.292969 527.078125 335.007813 L 527.078125 294.132813 C 527.078125 285.894531 528.035156 273.851563 517.902344 273.851563 C 514.34375 273.851563 511.058594 276.230469 509.417969 279.871094 C 507.363281 284.464844 507.085938 289.0625 507.085938 294.132813 L 507.085938 334.667969 C 507.0625 336.175781 505.792969 337.378906 504.230469 337.378906 "/>
<path style=" stroke:none;fill-rule:evenodd;fill:rgb(0.799561%,1.199341%,1.199341%);fill-opacity:1;" d="M 555.304688 334.039063 C 555.304688 332.660156 556.480469 331.546875 557.929688 331.546875 C 559.375 331.546875 560.546875 332.660156 560.546875 334.039063 C 560.546875 335.414063 559.375 336.527344 557.929688 336.527344 C 556.480469 336.527344 555.304688 335.414063 555.304688 334.039063 "/>
<path style=" stroke:none;fill-rule:evenodd;fill:rgb(0.799561%,1.199341%,1.199341%);fill-opacity:1;" d="M 649.113281 334.039063 C 649.113281 332.660156 650.285156 331.546875 651.734375 331.546875 C 653.183594 331.546875 654.355469 332.660156 654.355469 334.039063 C 654.355469 335.414063 653.183594 336.527344 651.734375 336.527344 C 650.285156 336.527344 649.113281 335.414063 649.113281 334.039063 "/>
<path style=" stroke:none;fill-rule:nonzero;fill:rgb(0.799561%,1.199341%,1.199341%);fill-opacity:1;" d="M 611.738281 336.214844 C 611.1875 336.199219 610.746094 335.769531 610.746094 335.234375 L 610.746094 307.890625 C 610.78125 307.40625 611.191406 307.023438 611.699219 306.992188 L 613.65625 306.992188 C 614.195313 306.992188 614.636719 307.382813 614.679688 307.890625 L 614.679688 311.878906 C 616.066406 308.71875 618.660156 306.242188 621.933594 306.242188 L 622.140625 306.246094 L 622.335938 306.242188 C 625.808594 306.242188 628.351563 308.804688 629.296875 312.527344 C 630.769531 308.851563 633.539063 306.242188 637.195313 306.242188 L 637.386719 306.246094 L 637.605469 306.242188 C 640.1875 306.242188 642.671875 307.910156 643.964844 310.441406 C 645.207031 312.859375 645.15625 316.082031 645.15625 318.785156 L 645.15625 335.234375 C 645.15625 335.757813 644.734375 336.179688 644.199219 336.214844 L 641.863281 336.214844 C 641.359375 336.199219 640.941406 335.839844 640.875 335.367188 L 640.875 318.785156 C 640.875 316.828125 640.976563 314.757813 640.183594 312.976563 C 639.367188 311.148438 637.816406 310.015625 636.152344 309.929688 C 634.296875 310.023438 632.589844 311.371094 631.484375 313.203125 C 630.042969 315.5625 630.09375 317.691406 630.09375 320.453125 L 630.09375 335.375 C 630.027344 335.828125 629.632813 336.183594 629.144531 336.214844 L 626.816406 336.214844 C 626.265625 336.199219 625.824219 335.769531 625.824219 335.234375 L 625.8125 317.691406 C 625.8125 316.082031 625.714844 314.183594 624.96875 312.742188 C 624.109375 311.089844 622.5625 310.015625 620.949219 309.929688 C 619.269531 310.023438 617.574219 311.304688 616.570313 312.800781 C 615.273438 314.699219 615.027344 317.058594 615.027344 319.476563 L 615.023438 335.234375 C 615.023438 335.757813 614.605469 336.179688 614.070313 336.214844 L 611.738281 336.214844 "/>
<path style=" stroke:none;fill-rule:nonzero;fill:rgb(0.799561%,1.199341%,1.199341%);fill-opacity:1;" d="M 659.636719 336.214844 C 659.082031 336.199219 658.644531 335.769531 658.644531 335.234375 L 658.644531 307.890625 C 658.679688 307.40625 659.085938 307.023438 659.59375 306.992188 L 661.550781 306.992188 C 662.085938 306.992188 662.527344 307.382813 662.574219 307.890625 L 662.574219 311.878906 C 663.964844 308.71875 666.554688 306.242188 669.828125 306.242188 L 670.03125 306.246094 L 670.230469 306.242188 C 673.703125 306.242188 676.246094 308.804688 677.191406 312.527344 C 678.664063 308.851563 681.4375 306.242188 685.09375 306.242188 L 685.28125 306.246094 L 685.496094 306.242188 C 688.082031 306.242188 690.566406 307.910156 691.859375 310.441406 C 693.105469 312.859375 693.054688 316.082031 693.054688 318.785156 L 693.054688 335.234375 C 693.054688 335.757813 692.632813 336.179688 692.097656 336.214844 L 689.757813 336.214844 C 689.253906 336.199219 688.839844 335.839844 688.773438 335.367188 L 688.773438 318.785156 C 688.773438 316.828125 688.871094 314.757813 688.074219 312.976563 C 687.265625 311.148438 685.714844 310.015625 684.046875 309.929688 C 682.191406 310.023438 680.484375 311.371094 679.378906 313.203125 C 677.9375 315.5625 677.988281 317.691406 677.988281 320.453125 L 677.988281 335.375 C 677.921875 335.828125 677.527344 336.183594 677.042969 336.214844 L 674.714844 336.214844 C 674.160156 336.199219 673.71875 335.769531 673.71875 335.234375 L 673.707031 317.691406 C 673.707031 316.082031 673.605469 314.183594 672.863281 312.742188 C 672.003906 311.089844 670.460938 310.015625 668.84375 309.929688 C 667.164063 310.023438 665.46875 311.304688 664.464844 312.800781 C 663.171875 314.699219 662.921875 317.058594 662.921875 319.476563 L 662.921875 335.234375 C 662.921875 335.757813 662.5 336.179688 661.964844 336.214844 L 659.636719 336.214844 "/>
<path style=" stroke:none;fill-rule:nonzero;fill:rgb(0.799561%,1.199341%,1.199341%);fill-opacity:1;" d="M 713.355469 306.691406 L 718.730469 306.691406 L 709.769531 321.449219 L 718.628906 336.25 L 713.304688 336.25 L 707.109375 325.902344 L 700.859375 336.25 L 695.484375 336.25 L 704.394531 321.449219 L 695.640625 306.691406 L 701.015625 306.691406 L 707.109375 317 L 713.355469 306.691406 "/>
<path style=" stroke:none;fill-rule:nonzero;fill:rgb(0.799561%,1.199341%,1.199341%);fill-opacity:1;" d="M 596.246094 333.046875 C 598.730469 332.96875 600.691406 331.425781 601.851563 328.851563 C 602.894531 326.550781 603.097656 323.902344 603.097656 321.375 C 603.097656 318.609375 602.800781 315.734375 601.507813 313.375 C 600.347656 311.3125 598.351563 310.007813 596.238281 309.929688 C 593.882813 310.015625 591.78125 311.605469 590.722656 314.066406 C 589.777344 316.195313 589.480469 319.015625 589.480469 321.375 C 589.480469 324.019531 589.824219 327.066406 590.917969 329.371094 C 591.980469 331.550781 594.03125 332.972656 596.246094 333.046875 Z M 595.6875 336.789063 C 588.132813 336.789063 584.75 329.082031 584.75 321.375 C 584.75 313.261719 588.730469 306.242188 596.335938 306.242188 L 596.738281 306.242188 C 604.144531 306.242188 607.828125 313.722656 607.828125 321.429688 C 607.828125 329.601563 603.75 336.789063 596.089844 336.789063 L 595.6875 336.789063 "/>
<path style=" stroke:none;fill-rule:nonzero;fill:rgb(0.799561%,1.199341%,1.199341%);fill-opacity:1;" d="M 572.070313 332.933594 C 575.464844 332.824219 577.242188 330.105469 577.984375 326.582031 C 578.128906 326.144531 578.464844 325.804688 578.960938 325.804688 L 581.203125 325.796875 C 581.730469 325.824219 582.21875 326.230469 582.179688 326.722656 C 581.144531 332.71875 577.523438 336.789063 572.363281 336.789063 L 571.960938 336.789063 C 564.453125 336.789063 561.222656 329.257813 561.222656 321.601563 C 561.222656 314.011719 564.503906 306.242188 572.015625 306.242188 L 572.414063 306.242188 C 577.625 306.242188 581.347656 310.257813 582.152344 316.257813 C 582.152344 316.707031 581.730469 317.097656 581.242188 317.152344 L 578.890625 317.128906 C 578.402344 317.058594 578.082031 316.632813 578.007813 316.160156 C 577.441406 312.8125 575.519531 310.148438 572.3125 310.042969 C 567.203125 310.207031 565.753906 316.488281 565.753906 321.316406 C 565.753906 325.976563 566.964844 332.765625 572.070313 332.933594 "/>
<path style=" stroke:none;fill-rule:evenodd;fill:rgb(0.799561%,1.199341%,1.199341%);fill-opacity:1;" d="M 323.570313 337.191406 C 322.601563 338.0625 321.203125 338.117188 320.105469 337.53125 C 315.234375 333.480469 314.363281 331.609375 311.699219 327.757813 C 303.644531 335.957031 297.941406 338.417969 287.515625 338.417969 C 275.164063 338.417969 265.5625 330.796875 265.5625 315.558594 C 265.5625 303.648438 272.007813 295.554688 281.203125 291.582031 C 289.160156 288.089844 300.277344 287.457031 308.785156 286.503906 L 308.785156 284.597656 C 308.785156 281.105469 309.058594 276.976563 307 273.960938 C 305.214844 271.261719 301.785156 270.148438 298.769531 270.148438 C 293.171875 270.148438 288.199219 273.015625 286.976563 278.960938 C 286.722656 280.28125 285.757813 281.585938 284.429688 281.652344 L 270.210938 280.117188 C 269.011719 279.847656 267.679688 278.882813 268.023438 277.050781 C 271.289063 259.800781 286.867188 254.589844 300.828125 254.589844 C 307.960938 254.589844 317.292969 256.492188 322.917969 261.894531 C 330.054688 268.5625 329.367188 277.453125 329.367188 287.136719 L 329.367188 309.988281 C 329.367188 316.863281 332.222656 319.882813 334.902344 323.585938 C 335.839844 324.917969 336.050781 326.507813 334.855469 327.480469 C 331.859375 329.992188 326.535156 334.617188 323.605469 337.222656 Z M 308.785156 301.425781 C 308.785156 307.144531 308.921875 311.90625 306.039063 316.988281 C 303.707031 321.117188 300.003906 323.65625 295.886719 323.65625 C 290.261719 323.65625 286.964844 319.367188 286.964844 313.015625 C 286.964844 300.523438 298.171875 298.253906 308.785156 298.253906 L 308.785156 301.425781 "/>
<path style=" stroke:none;fill-rule:evenodd;fill:rgb(0.799561%,1.199341%,1.199341%);fill-opacity:1;" d="M 131.28125 337.191406 C 130.308594 338.0625 128.910156 338.117188 127.816406 337.53125 C 122.945313 333.480469 122.070313 331.609375 119.40625 327.757813 C 111.355469 335.957031 105.652344 338.417969 95.222656 338.417969 C 82.875 338.417969 73.269531 330.796875 73.269531 315.558594 C 73.269531 303.648438 79.71875 295.554688 88.910156 291.582031 C 96.871094 288.089844 107.984375 287.457031 116.492188 286.503906 L 116.492188 284.597656 C 116.492188 281.105469 116.765625 276.976563 114.710938 273.960938 C 112.925781 271.261719 109.492188 270.148438 106.476563 270.148438 C 100.882813 270.148438 95.90625 273.015625 94.683594 278.960938 C 94.429688 280.28125 93.46875 281.585938 92.136719 281.652344 L 77.921875 280.117188 C 76.71875 279.847656 75.386719 278.882813 75.730469 277.050781 C 78.996094 259.800781 94.574219 254.589844 108.535156 254.589844 C 115.671875 254.589844 125 256.492188 130.628906 261.894531 C 137.761719 268.5625 137.078125 277.453125 137.078125 287.136719 L 137.078125 309.988281 C 137.078125 316.863281 139.929688 319.882813 142.613281 323.585938 C 143.546875 324.917969 143.757813 326.507813 142.566406 327.480469 C 139.570313 329.992188 134.242188 334.617188 131.316406 337.222656 Z M 116.492188 301.425781 C 116.492188 307.144531 116.628906 311.90625 113.746094 316.988281 C 111.414063 321.117188 107.710938 323.65625 103.59375 323.65625 C 97.96875 323.65625 94.675781 319.367188 94.675781 313.015625 C 94.675781 300.523438 105.882813 298.253906 116.492188 298.253906 L 116.492188 301.425781 "/>
</g>
</svg>
